<?xml version="1.0" encoding="UTF-8" standalone="no"?>
<!DOCTYPE svg PUBLIC "-//W3C//DTD SVG 1.1//EN"
 "http://www.w3.org/Graphics/SVG/1.1/DTD/svg11.dtd">
<!-- Generated by graphviz version 2.43.0 (0)
 -->
<!-- Title: IslamicArmyHierarchy Pages: 1 -->
<svg width="654pt" height="467pt"
 viewBox="0.00 0.00 653.50 467.17" xmlns="http://www.w3.org/2000/svg" xmlns:xlink="http://www.w3.org/1999/xlink">
<g id="graph0" class="graph" transform="scale(1 1) rotate(0) translate(4 463.17)">
<title>IslamicArmyHierarchy</title>
<style>
  .node a {
    cursor: pointer;
  }
  .node:hover polygon, .node:hover ellipse {
    opacity: 0.85;
    filter: brightness(1.2);
  }
  text {
    pointer-events: none;
  }
</style>

<polygon fill="white" stroke="transparent" points="-4,4 -4,-463.17 649.5,-463.17 649.5,4 -4,4"/>
<text text-anchor="middle" x="322.75" y="-37.8" font-family="Times,serif" font-size="14.00">Islamic Army Unified Command Structure</text>
<text text-anchor="middle" x="322.75" y="-22.8" font-family="Times,serif" font-size="14.00">120,000+ Trained Fighters Under Single Leadership</text>
<text text-anchor="middle" x="322.75" y="-7.8" font-family="Times,serif" font-size="14.00">Unprecedented Sunni&#45;Shia Cooperation</text>
<!-- hamza -->
<g id="node1" class="node">
<title>hamza</title>
<a xlink:href="/#entity:hamza-bin-laden" class="entity-link">
<polygon fill="#dc2626" stroke="black" stroke-width="3" points="319.5,-374.08 185.5,-374.08 185.5,-327.08 319.5,-327.08 319.5,-374.08"/>
<text text-anchor="middle" x="252.5" y="-360.48" font-family="Arial" font-size="12.00" fill="white">Hamza bin Laden</text>
<text text-anchor="middle" x="252.5" y="-347.48" font-family="Arial" font-size="12.00" fill="white">Supreme Commander</text>
<text text-anchor="middle" x="252.5" y="-334.48" font-family="Arial" font-size="12.00" fill="white">Islamic Army</text>
</a>
</g>
<!-- hamza_military -->
<g id="node2" class="node">
<title>hamza_military</title>
<a xlink:href="/#entity:hamza-al-ghamdi" class="entity-link">
<polygon fill="#ea580c" stroke="black" points="314.5,-284.04 190.5,-284.04 190.5,-248.04 314.5,-248.04 314.5,-284.04"/>
<text text-anchor="middle" x="252.5" y="-269.44" font-family="Arial" font-size="12.00" fill="white">Hamza al&#45;Ghamdi</text>
<text text-anchor="middle" x="252.5" y="-256.44" font-family="Arial" font-size="12.00" fill="white">Military Commander</text>
</a>
</g>
<!-- hamza&#45;&gt;hamza_military -->
<g id="edge1" class="edge">
<title>hamza&#45;&gt;hamza_military</title>
<path fill="none" stroke="#dc2626" stroke-width="3" d="M252.5,-327.03C252.5,-316.86 252.5,-304.77 252.5,-294.12"/>
<polygon fill="#dc2626" stroke="#dc2626" stroke-width="3" points="256,-294.07 252.5,-284.07 249,-294.07 256,-294.07"/>
</g>
<!-- aq -->
<g id="node3" class="node">
<title>aq</title>
<a xlink:href="/#entity:al-qaeda" class="entity-link">
<polygon fill="#dc2626" stroke="black" points="511,-191 404,-191 404,-155 511,-155 511,-191"/>
<text text-anchor="middle" x="457.5" y="-176.4" font-family="Arial" font-size="12.00" fill="white">Al&#45;Qaeda</text>
<text text-anchor="middle" x="457.5" y="-163.4" font-family="Arial" font-size="12.00" fill="white">(Global Network)</text>
</a>
</g>
<!-- hamza_military&#45;&gt;aq -->
<g id="edge2" class="edge">
<title>hamza_military&#45;&gt;aq</title>
<path fill="none" stroke="black" stroke-width="2" d="M283.48,-247.8C305.02,-236.13 334.6,-220.77 361.5,-209 372.91,-204.01 385.29,-199.12 397.24,-194.66"/>
<polygon fill="black" stroke="black" stroke-width="2" points="398.53,-197.91 406.71,-191.17 396.12,-191.34 398.53,-197.91"/>
</g>
<!-- taliban -->
<g id="node4" class="node">
<title>taliban</title>
<a xlink:href="/#entity:taliban" class="entity-link">
<polygon fill="#dc2626" stroke="black" points="645.5,-191 529.5,-191 529.5,-155 645.5,-155 645.5,-191"/>
<text text-anchor="middle" x="587.5" y="-176.4" font-family="Arial" font-size="12.00" fill="white">Taliban</text>
<text text-anchor="middle" x="587.5" y="-163.4" font-family="Arial" font-size="12.00" fill="white">(Afghanistan Govt)</text>
</a>
</g>
<!-- hamza_military&#45;&gt;taliban -->
<g id="edge3" class="edge">
<title>hamza_military&#45;&gt;taliban</title>
<path fill="none" stroke="black" stroke-width="2" d="M300.83,-248.02C319.65,-241.04 341.27,-232.59 360.5,-224 373.75,-218.08 375.67,-213.38 389.5,-209 442.57,-192.18 460.88,-201.16 519.34,-191.02"/>
<polygon fill="black" stroke="black" stroke-width="2" points="520.29,-194.41 529.49,-189.14 519.01,-187.52 520.29,-194.41"/>
</g>
<!-- haqqani -->
<g id="node5" class="node">
<title>haqqani</title>
<a xlink:href="/#entity:haqqani-network" class="entity-link">
<polygon fill="#dc2626" stroke="black" points="385.5,-191 275.5,-191 275.5,-155 385.5,-155 385.5,-191"/>
<text text-anchor="middle" x="330.5" y="-176.4" font-family="Arial" font-size="12.00" fill="white">Haqqani Network</text>
<text text-anchor="middle" x="330.5" y="-163.4" font-family="Arial" font-size="12.00" fill="white">(Interior Ministry)</text>
</a>
</g>
<!-- hamza_military&#45;&gt;haqqani -->
<g id="edge4" class="edge">
<title>hamza_military&#45;&gt;haqqani</title>
<path fill="none" stroke="black" stroke-width="2" d="M267.17,-247.92C279.05,-234.06 295.93,-214.35 309.28,-198.77"/>
<polygon fill="black" stroke="black" stroke-width="2" points="312.05,-200.92 315.89,-191.05 306.73,-196.36 312.05,-200.92"/>
</g>
<!-- isis -->
<g id="node6" class="node">
<title>isis</title>
<a xlink:href="/#entity:isis-k" class="entity-link">
<polygon fill="#ea580c" stroke="black" points="326.5,-89 246.5,-89 246.5,-53 326.5,-53 326.5,-89"/>
<text text-anchor="middle" x="286.5" y="-74.4" font-family="Arial" font-size="12.00" fill="white">ISIS/ISIS&#45;K</text>
<text text-anchor="middle" x="286.5" y="-61.4" font-family="Arial" font-size="12.00" fill="white">(Controlled)</text>
</a>
</g>
<!-- hamza_military&#45;&gt;isis -->
<g id="edge5" class="edge">
<title>hamza_military&#45;&gt;isis</title>
<path fill="none" stroke="black" stroke-width="2" d="M254.1,-247.8C256.26,-226.06 260.52,-187.58 266.5,-155 269.97,-136.1 275.05,-115.07 279.22,-98.9"/>
<polygon fill="black" stroke="black" stroke-width="2" points="282.66,-99.61 281.81,-89.05 275.89,-97.83 282.66,-99.61"/>
</g>
<!-- hamas -->
<g id="node7" class="node">
<title>hamas</title>
<a xlink:href="/#entity:hamas" class="entity-link">
<polygon fill="#ea580c" stroke="black" points="99,-191 0,-191 0,-155 99,-155 99,-191"/>
<text text-anchor="middle" x="49.5" y="-176.4" font-family="Arial" font-size="12.00" fill="white">Hamas</text>
<text text-anchor="middle" x="49.5" y="-163.4" font-family="Arial" font-size="12.00" fill="white">(Gaza/Training)</text>
</a>
</g>
<!-- hamza_military&#45;&gt;hamas -->
<g id="edge6" class="edge">
<title>hamza_military&#45;&gt;hamas</title>
<path fill="none" stroke="black" stroke-width="2" d="M214.32,-247.92C181,-232.98 132.53,-211.24 96.77,-195.2"/>
<polygon fill="black" stroke="black" stroke-width="2" points="98.07,-191.95 87.51,-191.05 95.2,-198.33 98.07,-191.95"/>
</g>
<!-- hezbollah -->
<g id="node8" class="node">
<title>hezbollah</title>
<a xlink:href="/#entity:hezbollah" class="entity-link">
<polygon fill="#ea580c" stroke="black" points="219.5,-191 117.5,-191 117.5,-155 219.5,-155 219.5,-191"/>
<text text-anchor="middle" x="168.5" y="-176.4" font-family="Arial" font-size="12.00" fill="white">Hezbollah</text>
<text text-anchor="middle" x="168.5" y="-163.4" font-family="Arial" font-size="12.00" fill="white">(Lebanon/Syria)</text>
</a>
</g>
<!-- hamza_military&#45;&gt;hezbollah -->
<g id="edge7" class="edge">
<title>hamza_military&#45;&gt;hezbollah</title>
<path fill="none" stroke="black" stroke-width="2" d="M236.7,-247.92C223.91,-234.06 205.73,-214.35 191.35,-198.77"/>
<polygon fill="black" stroke="black" stroke-width="2" points="193.58,-196.02 184.23,-191.05 188.44,-200.77 193.58,-196.02"/>
</g>
<!-- force -->
<g id="node13" class="node">
<title>force</title>
<polygon fill="#2563eb" stroke="black" points="532.5,-89 382.5,-89 382.5,-53 532.5,-53 532.5,-89"/>
<text text-anchor="middle" x="457.5" y="-74.4" font-family="Arial" font-size="12.00" fill="white">120,000 Trained Fighters</text>
<text text-anchor="middle" x="457.5" y="-61.4" font-family="Arial" font-size="12.00" fill="white">30 Camps in Afghanistan</text>
</g>
<!-- aq&#45;&gt;force -->
<g id="edge14" class="edge">
<title>aq&#45;&gt;force</title>
<path fill="none" stroke="#2563eb" d="M457.5,-154.58C457.5,-139.38 457.5,-117.07 457.5,-99.46"/>
<polygon fill="#2563eb" stroke="#2563eb" points="461,-99.22 457.5,-89.22 454,-99.22 461,-99.22"/>
</g>
<!-- taliban&#45;&gt;force -->
<g id="edge15" class="edge">
<title>taliban&#45;&gt;force</title>
<path fill="none" stroke="#2563eb" d="M565.15,-154.81C543.85,-138.42 511.61,-113.62 487.97,-95.43"/>
<polygon fill="#2563eb" stroke="#2563eb" points="490.05,-92.62 479.99,-89.3 485.78,-98.17 490.05,-92.62"/>
</g>
<!-- haqqani&#45;&gt;isis -->
<g id="edge8" class="edge">
<title>haqqani&#45;&gt;isis</title>
<path fill="none" stroke="#dc2626" stroke-width="2" d="M322.84,-154.58C316.02,-139.09 305.96,-116.22 298.15,-98.47"/>
<polygon fill="#dc2626" stroke="#dc2626" stroke-width="2" points="301.31,-96.96 294.08,-89.22 294.9,-99.78 301.31,-96.96"/>
<text text-anchor="middle" x="346" y="-125.8" font-family="Times,serif" font-size="14.00">Controls</text>
<text text-anchor="middle" x="346" y="-110.8" font-family="Times,serif" font-size="14.00">Leadership</text>
</g>
<!-- haqqani&#45;&gt;force -->
<g id="edge16" class="edge">
<title>haqqani&#45;&gt;force</title>
<path fill="none" stroke="#2563eb" d="M355.74,-154.99C363.77,-149.41 372.61,-143.07 380.5,-137 397.58,-123.86 416.05,-108.31 430.62,-95.72"/>
<polygon fill="#2563eb" stroke="#2563eb" points="433.03,-98.26 438.28,-89.06 428.44,-92.98 433.03,-98.26"/>
</g>
<!-- iran -->
<g id="node9" class="node">
<title>iran</title>
<a xlink:href="/#entity:iran" class="entity-link">
<ellipse fill="#ca8a04" stroke="black" cx="102.5" cy="-435.12" rx="65.11" ry="24.08"/>
<text text-anchor="middle" x="102.5" y="-438.52" font-family="Arial" font-size="12.00" fill="white">Iran</text>
<text text-anchor="middle" x="102.5" y="-425.52" font-family="Arial" font-size="12.00" fill="white">IRGC Support</text>
</a>
</g>
<!-- iran&#45;&gt;hamza -->
<g id="edge9" class="edge">
<title>iran&#45;&gt;hamza</title>
<path fill="none" stroke="#ca8a04" stroke-dasharray="5,2" d="M137.67,-414.77C156.99,-404.14 181.28,-390.77 202.54,-379.08"/>
<polygon fill="#ca8a04" stroke="#ca8a04" points="204.36,-382.07 211.44,-374.18 200.99,-375.93 204.36,-382.07"/>
</g>
<!-- russia -->
<g id="node10" class="node">
<title>russia</title>
<a xlink:href="/#entity:russia" class="entity-link">
<ellipse fill="#ca8a04" stroke="black" cx="252.5" cy="-435.12" rx="67.35" ry="24.08"/>
<text text-anchor="middle" x="252.5" y="-438.52" font-family="Arial" font-size="12.00" fill="white">Russia</text>
<text text-anchor="middle" x="252.5" y="-425.52" font-family="Arial" font-size="12.00" fill="white">Supply Chains</text>
</a>
</g>
<!-- russia&#45;&gt;hamza -->
<g id="edge10" class="edge">
<title>russia&#45;&gt;hamza</title>
<path fill="none" stroke="#ca8a04" stroke-dasharray="5,2" d="M252.5,-410.69C252.5,-402.47 252.5,-393.08 252.5,-384.24"/>
<polygon fill="#ca8a04" stroke="#ca8a04" points="256,-384.22 252.5,-374.22 249,-384.22 256,-384.22"/>
</g>
<!-- china -->
<g id="node11" class="node">
<title>china</title>
<a xlink:href="/#entity:china" class="entity-link">
<ellipse fill="#ca8a04" stroke="black" cx="412.5" cy="-435.12" rx="74.91" ry="24.08"/>
<text text-anchor="middle" x="412.5" y="-438.52" font-family="Arial" font-size="12.00" fill="white">China</text>
<text text-anchor="middle" x="412.5" y="-425.52" font-family="Arial" font-size="12.00" fill="white">$10B Investment</text>
</a>
</g>
<!-- china&#45;&gt;hamza -->
<g id="edge11" class="edge">
<title>china&#45;&gt;hamza</title>
<path fill="none" stroke="#ca8a04" stroke-dasharray="5,2" d="M374.18,-414.35C353.54,-403.71 327.76,-390.41 305.26,-378.8"/>
<polygon fill="#ca8a04" stroke="#ca8a04" points="306.65,-375.58 296.16,-374.11 303.45,-381.8 306.65,-375.58"/>
</g>
<!-- us -->
<g id="node12" class="node">
<title>us</title>
<ellipse fill="#16a34a" stroke="black" stroke-dasharray="5,2" cx="429.5" cy="-266.04" rx="75.82" ry="24.08"/>
<text text-anchor="middle" x="429.5" y="-269.44" font-family="Arial" font-size="12.00" fill="white">United States</text>
<text text-anchor="middle" x="429.5" y="-256.44" font-family="Arial" font-size="12.00" fill="white">$44&#45;87M Weekly</text>
</g>
<!-- us&#45;&gt;taliban -->
<g id="edge12" class="edge">
<title>us&#45;&gt;taliban</title>
<path fill="none" stroke="#16a34a" stroke-width="2" stroke-dasharray="5,2" d="M464.96,-244.61C490.03,-230.17 523.6,-210.82 549.27,-196.03"/>
<polygon fill="#16a34a" stroke="#16a34a" stroke-width="2" points="551.07,-199.03 557.99,-191.01 547.58,-192.97 551.07,-199.03"/>
<text text-anchor="middle" x="545.5" y="-212.8" font-family="Times,serif" font-size="14.00">Funding</text>
</g>
<!-- us&#45;&gt;haqqani -->
<g id="edge13" class="edge">
<title>us&#45;&gt;haqqani</title>
<path fill="none" stroke="#16a34a" stroke-width="2" stroke-dasharray="5,2" d="M405.53,-243C390.82,-229.47 371.95,-212.12 356.82,-198.21"/>
<polygon fill="#16a34a" stroke="#16a34a" stroke-width="2" points="359.02,-195.47 349.29,-191.28 354.28,-200.63 359.02,-195.47"/>
<text text-anchor="middle" x="419" y="-212.8" font-family="Times,serif" font-size="14.00">$15&#45;18M/mo</text>
</g>
</g>
</svg>
